<svg width="1200" height="608" viewBox="0 0 1200 608" fill="none" xmlns="http://www.w3.org/2000/svg">
<path d="M1200 0H0V577.167C53.3506 534.489 101.34 518.627 144.295 520.522C164.414 521.411 176.277 525.879 187.497 530.106C199.976 534.806 211.662 539.208 233.029 538.053C259.543 536.617 276.526 527.951 296.481 517.77C317.172 507.212 341.059 495.024 382.081 487.574C398.703 484.552 417.101 482.503 437.237 486.936C454.792 490.799 465.264 497.742 477.68 505.974C480.337 507.735 483.082 509.555 486.005 511.417C486.005 511.417 526.456 537.167 571.89 550.523C585.433 554.508 601.34 557.377 695.056 550.571C731.694 547.909 757.825 545.395 777.841 543.469C817.681 539.636 833.303 538.133 859.35 542.429C889.903 547.467 907.295 555.941 926.98 565.532C935.31 569.591 944.049 573.849 954.37 578.132C1002.38 598.066 1078.62 616.055 1200 603.281V0Z" fill="#FAD236"/>
</svg>
